<?xml version="1.0" encoding="UTF-8"?>
<svg id="Layer_2" data-name="Layer 2" xmlns="http://www.w3.org/2000/svg" viewBox="0 0 232.06 13.62">
  <g id="Layer_2-2" data-name="Layer 2">
    <g>
      <path d="m182.25,5.02c-2.15-.02-4.29-.06-6.43-.08.21.55.34,1.18.34,1.86,0,.73-.14,1.41-.38,1.99,2.17-.02,4.34-.06,6.52-.08-.23-.55-.36-1.2-.36-1.9,0-.65.12-1.26.32-1.79Z" fill="#4d4d4d"/>
      <path d="m232.06,7.75c-.07-.29-.11-.61-.11-.94,0-.29.04-.56.09-.82l-1.45-.04c.06.27.09.56.09.86,0,.35-.05.67-.12.98l1.5-.05Z" fill="#4d4d4d"/>
      <path d="m191.8,5.15c-1.83-.03-3.67-.05-5.51-.07.19.52.31,1.1.31,1.73,0,.68-.13,1.31-.35,1.85,1.86-.03,3.73-.04,5.59-.07-.21-.52-.33-1.12-.33-1.78,0-.6.11-1.17.29-1.66Z" fill="#4d4d4d"/>
      <path d="m215.07,5.57c-1.06-.02-2.11-.05-3.17-.07.12.4.19.84.19,1.31,0,.52-.09,1-.23,1.43,1.08-.02,2.17-.05,3.25-.07-.13-.41-.21-.87-.21-1.36,0-.44.06-.86.17-1.24Z" fill="#4d4d4d"/>
      <path d="m221.33,5.71c-.85-.02-1.69-.04-2.53-.06.1.36.15.75.15,1.16,0,.46-.07.89-.18,1.28.87-.02,1.73-.04,2.6-.06-.11-.37-.17-.79-.17-1.22,0-.39.05-.76.14-1.1Z" fill="#4d4d4d"/>
      <path d="m171.63,4.91c-2.48-.02-4.96-.04-7.44-.07.22.58.36,1.25.36,1.97,0,.77-.15,1.49-.4,2.09,2.51-.02,5.02-.05,7.53-.07-.25-.58-.39-1.28-.39-2.02,0-.7.13-1.34.35-1.9Z" fill="#4d4d4d"/>
      <path d="m226.97,5.84l-1.34-.04c-.21,0-.42,0-.63-.01.08.32.13.66.13,1.02,0,.41-.05.79-.15,1.15.22,0,.43,0,.65-.01l1.37-.04c-.09-.34-.14-.7-.14-1.09,0-.34.05-.66.12-.97Z" fill="#4d4d4d"/>
      <path d="m159.81,4.8l-8.54-.03c.23.6.37,1.29.37,2.04,0,.8-.15,1.53-.41,2.16l8.62-.03c-.26-.61-.42-1.34-.42-2.13,0-.74.14-1.42.37-2.01Z" fill="#4d4d4d"/>
      <path d="m132.05,4.7h-.88c-1.66-1.51-5.73-4.7-10.58-4.7-6.21,0-11.17,5.25-11.37,5.47l-1.25,1.34,1.25,1.34c.08.08.81.86,2.01,1.79.13-.06.25-.12.38-.18,0,0,1.26-.3,2.52-1.39-.08.07-.31.25.03-.02-.87-.52-1.63-1.07-2.22-1.54,1.79-1.44,5.01-3.53,8.65-3.53s6.86,2.09,8.65,3.54c-1.63,1.32-4.45,3.15-7.7,3.47-.14.4-2.73,1.62-3.98,2.39.8.18,2.16.96,3.03.96,4.72,0,8.71-3.03,10.45-4.58h1.05c-.26-.66-.42-1.41-.42-2.23,0-.77.14-1.48.37-2.11Z" fill="#4d4d4d"/>
      <path d="m200.4,5.29c-1.55-.03-3.1-.06-4.66-.08.17.48.27,1.02.27,1.6,0,.63-.12,1.21-.31,1.72,1.58-.02,3.16-.05,4.74-.08-.18-.49-.29-1.04-.29-1.64,0-.55.1-1.06.25-1.52Z" fill="#4d4d4d"/>
      <path d="m208.13,5.42c-1.29-.02-2.59-.04-3.88-.06.14.44.23.93.23,1.45,0,.57-.1,1.1-.27,1.57,1.32-.02,2.64-.04,3.96-.07-.16-.45-.26-.96-.26-1.51,0-.5.08-.97.22-1.39Z" fill="#4d4d4d"/>
      <path d="m146.66,4.75l-9.72-.03c.23.62.37,1.33.37,2.09,0,.81-.16,1.56-.41,2.21l9.81-.04c-.26-.63-.42-1.37-.42-2.18,0-.75.14-1.45.37-2.06Z" fill="#4d4d4d"/>
      <path d="m13.27,5.64c-.85.02-1.69.04-2.54.06.09.35.14.72.14,1.12,0,.44-.07.86-.18,1.24.87.02,1.74.04,2.61.06-.12-.4-.19-.83-.19-1.3,0-.42.06-.81.15-1.17Z" fill="#4d4d4d"/>
      <path d="m123.41,6.81l-1.25-1.34c-.07-.08-.74-.77-1.82-1.63-.77.08-.66-.05-1.42.3-.31.24-1.47.82-1.77,1.1.9.53,1.68,1.09,2.28,1.57-1.79,1.44-5.02,3.54-8.65,3.54s-6.86-2.09-8.65-3.53c1.71-1.37,4.72-3.31,8.13-3.5.1-.09.21-.18.33-.25.11-.07.21-.13.32-.2,0,0,2.47-1.77,3.19-2.39-1.05-.3-2.15-.48-3.31-.48-4.85,0-8.92,3.19-10.58,4.7h-.2c.23.63.38,1.34.38,2.11,0,.82-.16,1.58-.42,2.23h.37c1.74,1.55,5.73,4.58,10.45,4.58,6.21,0,11.16-5.25,11.37-5.47l1.25-1.34Z" fill="#4d4d4d"/>
      <path d="m27.82,5.35c-1.3.02-2.59.04-3.89.07.14.43.22.9.22,1.4,0,.55-.1,1.06-.26,1.52,1.32.03,2.65.04,3.97.07-.17-.47-.28-1.01-.28-1.59,0-.53.09-1.02.23-1.47Z" fill="#4d4d4d"/>
      <path d="m45.77,5.07c-1.84.02-3.67.04-5.51.07.18.5.29,1.06.29,1.67,0,.66-.13,1.27-.34,1.79,1.87.03,3.73.05,5.6.07-.22-.54-.35-1.18-.35-1.86,0-.63.12-1.22.31-1.74Z" fill="#4d4d4d"/>
      <path d="m95.12,4.72l-9.72.03c.23.61.37,1.31.37,2.06,0,.8-.16,1.55-.42,2.18l9.81.03c-.26-.65-.41-1.4-.41-2.21,0-.76.14-1.47.37-2.09Z" fill="#4d4d4d"/>
      <path d="m20.16,5.48c-1.06.02-2.12.05-3.18.07.11.39.18.81.18,1.26,0,.5-.08.96-.22,1.38,1.09.02,2.18.05,3.26.07-.15-.44-.24-.92-.24-1.45,0-.47.07-.92.19-1.33Z" fill="#4d4d4d"/>
      <path d="m36.33,5.2c-1.56.02-3.11.05-4.66.08.16.46.26.98.26,1.53,0,.6-.11,1.16-.3,1.65,1.58.03,3.16.06,4.75.08-.2-.51-.32-1.1-.32-1.73,0-.58.1-1.13.27-1.61Z" fill="#4d4d4d"/>
      <path d="m1.49,5.93l-1.46.04c.05.27.09.55.09.84,0,.34-.04.66-.12.96l1.51.05c-.08-.31-.12-.65-.12-1,0-.31.04-.6.1-.88Z" fill="#4d4d4d"/>
      <path d="m67.88,4.83c-2.48.02-4.97.05-7.45.07.22.56.35,1.21.35,1.91,0,.75-.15,1.45-.4,2.03,2.51.02,5.02.04,7.53.07-.25-.61-.41-1.33-.41-2.1,0-.73.14-1.4.36-1.98Z" fill="#4d4d4d"/>
      <path d="m56.25,4.94c-2.15.02-4.29.05-6.44.08.2.53.33,1.14.33,1.79,0,.71-.14,1.36-.37,1.91,2.17.02,4.35.06,6.52.08-.24-.58-.38-1.26-.38-1.99,0-.68.13-1.32.34-1.87Z" fill="#4d4d4d"/>
      <path d="m7.07,5.77c-.44.01-.87.02-1.31.03l-.67.02c.07.31.12.64.12.99,0,.39-.05.77-.14,1.11l.69.02c.44.01.89.02,1.33.03-.1-.36-.15-.75-.15-1.16,0-.37.05-.71.13-1.04Z" fill="#4d4d4d"/>
      <path d="m80.79,4.77l-8.54.03c.23.59.37,1.27.37,2.01,0,.79-.15,1.52-.42,2.13l8.62.03c-.26-.63-.41-1.37-.41-2.16,0-.75.14-1.44.37-2.04Z" fill="#4d4d4d"/>
      <path d="m228.76,6.07c-.27,0-.49.33-.49.74s.22.74.49.74.49-.33.49-.74-.22-.74-.49-.74Z" fill="#4d4d4d"/>
      <path d="m223.15,5.98c-.3,0-.54.37-.54.83s.24.83.54.83.54-.37.54-.83-.24-.83-.54-.83Z" fill="#4d4d4d"/>
      <path d="m216.92,5.89c-.33,0-.6.41-.6.92s.27.92.6.92.6-.41.6-.92-.27-.92-.6-.92Z" fill="#4d4d4d"/>
      <path d="m210,5.79c-.37,0-.67.46-.67,1.02s.3,1.02.67,1.02.67-.46.67-1.02-.3-1.02-.67-1.02Z" fill="#4d4d4d"/>
      <path d="m202.31,5.68c-.41,0-.74.51-.74,1.13s.33,1.13.74,1.13.74-.51.74-1.13-.33-1.13-.74-1.13Z" fill="#4d4d4d"/>
      <path d="m193.76,5.55c-.45,0-.82.56-.82,1.26s.37,1.26.82,1.26.82-.56.82-1.26-.37-1.26-.82-1.26Z" fill="#4d4d4d"/>
      <path d="m184.27,5.41c-.5,0-.91.63-.91,1.4s.41,1.4.91,1.4.91-.63.91-1.4-.41-1.4-.91-1.4Z" fill="#4d4d4d"/>
      <path d="m173.71,5.26c-.56,0-1.01.7-1.01,1.55s.46,1.56,1.01,1.56,1.01-.7,1.01-1.56-.45-1.55-1.01-1.55Z" fill="#4d4d4d"/>
      <path d="m161.99,5.08c-.62,0-1.13.77-1.13,1.73s.51,1.73,1.13,1.73,1.13-.77,1.13-1.73-.5-1.73-1.13-1.73Z" fill="#4d4d4d"/>
      <path d="m148.96,4.89c-.69,0-1.25.86-1.25,1.92s.56,1.92,1.25,1.92,1.25-.86,1.25-1.92-.56-1.92-1.25-1.92Z" fill="#4d4d4d"/>
      <path d="m134.49,4.68c-.77,0-1.39.96-1.39,2.13s.62,2.13,1.39,2.13,1.39-.96,1.39-2.13-.62-2.13-1.39-2.13Z" fill="#4d4d4d"/>
      <path d="m3.3,6.07c-.27,0-.49.33-.49.74s.22.74.49.74.49-.33.49-.74-.22-.74-.49-.74Z" fill="#4d4d4d"/>
      <path d="m8.91,5.98c-.3,0-.54.37-.54.83s.24.83.54.83.54-.37.54-.83-.24-.83-.54-.83Z" fill="#4d4d4d"/>
      <path d="m15.14,5.89c-.33,0-.6.41-.6.92s.27.92.6.92.6-.41.6-.92-.27-.92-.6-.92Z" fill="#4d4d4d"/>
      <path d="m22.06,5.79c-.37,0-.67.46-.67,1.02s.3,1.02.67,1.02.67-.46.67-1.02-.3-1.02-.67-1.02Z" fill="#4d4d4d"/>
      <path d="m29.75,5.68c-.41,0-.74.51-.74,1.13s.33,1.13.74,1.13.74-.51.74-1.13-.33-1.13-.74-1.13Z" fill="#4d4d4d"/>
      <path d="m38.3,5.55c-.45,0-.82.56-.82,1.26s.37,1.26.82,1.26.82-.56.82-1.26-.37-1.26-.82-1.26Z" fill="#4d4d4d"/>
      <path d="m47.8,5.41c-.5,0-.91.63-.91,1.4s.41,1.4.91,1.4.91-.63.91-1.4-.41-1.4-.91-1.4Z" fill="#4d4d4d"/>
      <path d="m58.35,5.26c-.56,0-1.01.7-1.01,1.55s.45,1.56,1.01,1.56,1.01-.7,1.01-1.56-.46-1.55-1.01-1.55Z" fill="#4d4d4d"/>
      <path d="m70.07,5.08c-.62,0-1.13.77-1.13,1.73s.5,1.73,1.13,1.73,1.13-.77,1.13-1.73-.5-1.73-1.13-1.73Z" fill="#4d4d4d"/>
      <path d="m83.1,4.89c-.69,0-1.25.86-1.25,1.92s.56,1.92,1.25,1.92,1.25-.86,1.25-1.92-.56-1.92-1.25-1.92Z" fill="#4d4d4d"/>
      <path d="m97.57,4.68c-.77,0-1.39.96-1.39,2.13s.62,2.13,1.39,2.13,1.39-.96,1.39-2.13-.62-2.13-1.39-2.13Z" fill="#4d4d4d"/>
    </g>
  </g>
</svg>