<?xml version="1.0" encoding="UTF-8"?>
<svg id="Layer_1" data-name="Layer 1" xmlns="http://www.w3.org/2000/svg" viewBox="0 0 155.88 50">
  <g>
    <path d="m3.67,6.11h5.11c3.3,0,5.53.15,6.7.45,1.16.3,2.05.8,2.65,1.49.61.69.98,1.46,1.14,2.31.15.85.23,2.52.23,5.01v9.21c0,2.36-.11,3.94-.33,4.73s-.61,1.42-1.16,1.87-1.23.76-2.05.94c-.81.18-2.04.27-3.67.27H3.67V6.11Zm6.84,4.5v17.29c.98,0,1.59-.2,1.82-.59s.34-1.47.34-3.22v-10.21c0-1.19-.04-1.95-.11-2.29-.08-.34-.25-.58-.52-.74-.27-.16-.78-.24-1.53-.24Z" fill="#231f20"/>
    <path d="m22.88,6.11h4.84c3.23,0,5.41.12,6.55.37,1.14.25,2.07.89,2.79,1.91.72,1.02,1.08,2.65,1.08,4.9,0,2.05-.25,3.42-.76,4.12-.51.7-1.51,1.13-3,1.27,1.35.34,2.26.78,2.73,1.35.47.56.75,1.08.87,1.55.11.47.17,1.77.17,3.89v6.93h-6.35v-8.73c0-1.41-.11-2.28-.33-2.61-.22-.34-.8-.5-1.75-.5v11.85h-6.84V6.11Zm6.84,4.5v5.84c.77,0,1.31-.11,1.62-.32.31-.21.46-.9.46-2.05v-1.44c0-.83-.15-1.38-.45-1.64-.3-.26-.84-.39-1.63-.39Z" fill="#231f20"/>
    <path d="m41.62,6.11h11.4v5.26h-4.56v4.98h4.27v5h-4.27v5.78h5.02v5.26h-11.85V6.11Z" fill="#231f20"/>
    <path d="m68.08,6.11l3.91,26.29h-6.99l-.37-4.73h-2.44l-.41,4.73h-7.07l3.49-26.29h9.88Zm-3.62,16.9c-.35-2.98-.69-6.66-1.04-11.04-.7,5.03-1.13,8.71-1.31,11.04h2.35Z" fill="#231f20"/>
    <path d="m95.08,6.11v26.29h-5.97V14.65s-2.39,17.75-2.39,17.75h-4.24l-2.51-17.34v17.34h-5.98V6.11h8.84c.26,1.58.53,3.44.81,5.59l.97,6.69,1.57-12.27h8.89Z" fill="#231f20"/>
    <path d="m105.34,6.11h6.82c2.15,0,3.79.17,4.9.5s2,1.01,2.69,2.04c.68,1.02,1.02,2.67,1.02,4.94,0,1.54-.24,2.61-.72,3.21s-1.43,1.07-2.85,1.4c1.58.36,2.65.95,3.22,1.78.56.83.84,2.1.84,3.81v2.44c0,1.78-.2,3.09-.61,3.95s-1.05,1.44-1.94,1.75-2.71.47-5.45.47h-7.91V6.11Zm6.84,4.5v5.84c.29-.01.52-.02.68-.02.67,0,1.1-.16,1.28-.49.18-.33.28-1.27.28-2.83,0-.82-.08-1.4-.23-1.73s-.35-.54-.59-.63c-.24-.09-.72-.14-1.42-.15Zm0,9.94v7.36c.96-.03,1.58-.18,1.84-.45s.4-.94.4-2v-2.45c0-1.13-.12-1.81-.36-2.05-.24-.24-.87-.37-1.88-.41Z" fill="#231f20"/>
    <path d="m131.37,6.11v26.29h-6.84V6.11h6.84Z" fill="#231f20"/>
    <path d="m150.63,15.79h-6.84v-2.39c0-1.5-.07-2.45-.19-2.82-.13-.38-.44-.57-.93-.57-.42,0-.71.16-.86.49-.15.33-.23,1.16-.23,2.5v12.62c0,1.18.08,1.96.23,2.33.15.37.45.56.91.56.5,0,.84-.21,1.01-.63.18-.42.27-1.25.27-2.47v-3.12h-1.38v-3.99h8v14.11h-4.3l-.63-1.88c-.47.81-1.05,1.42-1.76,1.83-.71.41-1.55.61-2.51.61-1.15,0-2.22-.28-3.22-.84-1-.56-1.76-1.25-2.28-2.07-.52-.82-.85-1.69-.98-2.59-.13-.9-.19-2.26-.19-4.07v-7.81c0-2.51.13-4.34.41-5.47.27-1.14,1.05-2.18,2.33-3.13,1.28-.95,2.94-1.42,4.98-1.42s3.66.41,4.98,1.23c1.32.82,2.18,1.8,2.58,2.93.4,1.13.6,2.77.6,4.93v1.14Z" fill="#231f20"/>
  </g>
  <path d="m7.51,46.84c34.82-7.76,70.61-11.6,106.3-11.34,4.46,0,13.45.31,17.91.61,2.22.08,6.73.4,8.95.64,0,0,8.94.81,8.94.81l-.67,5.17-8.77-1.12c-2.19-.32-6.59-.79-8.79-.95-4.4-.46-13.25-1.08-17.67-1.25-35.51-1.55-71.23.98-106.19,7.44h0Z" fill="#231f20"/>
</svg>