<?xml version="1.0" encoding="UTF-8"?>
<svg id="Layer_1" data-name="Layer 1" xmlns="http://www.w3.org/2000/svg" viewBox="0 0 146.96 54.84">
  <defs>
    <style>
      .cls-1 {
        fill: #231f20;
        stroke-width: 0px;
      }
    </style>
  </defs>
  <g>
    <path class="cls-1" d="M0,.54h5.11c3.3,0,5.53.15,6.7.45,1.16.3,2.05.8,2.65,1.49.61.69.98,1.46,1.14,2.31.15.85.23,2.52.23,5.01v9.21c0,2.36-.11,3.94-.33,4.73s-.61,1.42-1.16,1.87-1.23.76-2.05.94c-.81.18-2.04.27-3.67.27H0V.54ZM6.84,5.04v17.29c.98,0,1.59-.2,1.82-.59s.34-1.47.34-3.22v-10.21c0-1.19-.04-1.95-.11-2.29-.08-.34-.25-.58-.52-.74-.27-.16-.78-.24-1.53-.24Z"/>
    <path class="cls-1" d="M19.21.54h4.84c3.23,0,5.41.12,6.55.37,1.14.25,2.07.89,2.79,1.91.72,1.02,1.08,2.65,1.08,4.9,0,2.05-.25,3.42-.76,4.12-.51.7-1.51,1.13-3,1.27,1.35.34,2.26.78,2.73,1.35.47.56.75,1.08.87,1.55.11.47.17,1.77.17,3.89v6.93h-6.35v-8.73c0-1.41-.11-2.28-.33-2.61-.22-.34-.8-.5-1.75-.5v11.85h-6.84s0-26.3,0-26.3ZM26.05,5.04v5.84c.77,0,1.31-.11,1.62-.32.31-.21.46-.9.46-2.05v-1.44c0-.83-.15-1.38-.45-1.64-.3-.26-.84-.39-1.63-.39Z"/>
    <path class="cls-1" d="M37.95.54h11.4v5.26h-4.56v4.98h4.27v5h-4.27v5.78h5.02v5.26h-11.85V.54h0Z"/>
    <path class="cls-1" d="M64.41.54l3.91,26.29h-6.99l-.37-4.73h-2.44l-.41,4.73h-7.07L54.53.54s9.88,0,9.88,0ZM60.79,17.44c-.35-2.98-.69-6.66-1.04-11.04-.7,5.03-1.13,8.71-1.31,11.04h2.35Z"/>
    <path class="cls-1" d="M91.41.54v26.29h-5.97V9.08l-2.39,17.75h-4.24l-2.51-17.34v17.34h-5.98V.54h8.84c.26,1.58.53,3.44.81,5.59l.97,6.69,1.57-12.27h8.9Z"/>
    <path class="cls-1" d="M101.67.54h6.82c2.15,0,3.79.17,4.9.5s2,1.01,2.69,2.04c.68,1.02,1.02,2.67,1.02,4.94,0,1.54-.24,2.61-.72,3.21s-1.43,1.07-2.85,1.4c1.58.36,2.65.95,3.22,1.78.56.83.84,2.1.84,3.81v2.44c0,1.78-.2,3.09-.61,3.95s-1.05,1.44-1.94,1.75c-.89.31-2.71.47-5.45.47h-7.91V.54h0ZM108.51,5.04v5.84c.29-.01.52-.02.68-.02.67,0,1.1-.16,1.28-.49s.28-1.27.28-2.83c0-.82-.08-1.4-.23-1.73s-.35-.54-.59-.63-.72-.14-1.42-.15h0ZM108.51,14.98v7.36c.96-.03,1.58-.18,1.84-.45s.4-.94.4-2v-2.45c0-1.13-.12-1.81-.36-2.05s-.87-.37-1.88-.41Z"/>
    <path class="cls-1" d="M127.7.54v26.29h-6.84V.54h6.84Z"/>
    <path class="cls-1" d="M146.96,10.22h-6.84v-2.39c0-1.5-.07-2.45-.19-2.82-.13-.38-.44-.57-.93-.57-.42,0-.71.16-.86.49s-.23,1.16-.23,2.5v12.62c0,1.18.08,1.96.23,2.33s.45.56.91.56c.5,0,.84-.21,1.01-.63.18-.42.27-1.25.27-2.47v-3.12h-1.38v-3.99h8v14.11h-4.3l-.63-1.88c-.47.81-1.05,1.42-1.76,1.83-.71.41-1.55.61-2.51.61-1.15,0-2.22-.28-3.22-.84-1-.56-1.76-1.25-2.28-2.07s-.85-1.69-.98-2.59c-.13-.9-.19-2.26-.19-4.07v-7.81c0-2.51.13-4.34.41-5.47.27-1.14,1.05-2.18,2.33-3.13s2.94-1.42,4.98-1.42,3.66.41,4.98,1.23c1.32.82,2.18,1.8,2.58,2.93.4,1.13.6,2.77.6,4.93v1.14h0Z"/>
  </g>
  <path class="cls-1" d="M3.84,41.27c34.82-7.76,70.61-11.6,106.3-11.34,4.46,0,13.45.31,17.91.61,2.22.08,6.73.4,8.95.64l8.94.81-.67,5.17-8.77-1.12c-2.19-.32-6.59-.79-8.79-.95-4.4-.46-13.25-1.08-17.67-1.25-35.51-1.55-71.23.98-106.19,7.44h-.01Z"/>
  <g>
    <path class="cls-1" d="M33.25,40.76v10.21h-2.49v-10.21h2.49Z"/>
    <path class="cls-1" d="M39.58,48.86v2.11h-1.27c-.9,0-1.6-.22-2.11-.66s-.76-1.16-.76-2.16v-3.23h-.99v-2.06h.99v-1.98h2.49v1.98h1.63v2.06h-1.63v3.26c0,.24.06.42.17.52.12.11.31.16.58.16h.89Z"/>
    <path class="cls-1" d="M41.52,40.76h2.54l-1.63,3.9h-1.67l.76-3.9Z"/>
    <path class="cls-1" d="M46.93,50.72c-.55-.24-.99-.57-1.31-1-.32-.42-.5-.89-.54-1.42h2.46c.03.28.16.51.39.68.23.17.52.26.86.26.31,0,.55-.06.72-.18.17-.12.25-.28.25-.47,0-.23-.12-.4-.36-.52-.24-.11-.64-.24-1.18-.37-.58-.13-1.07-.28-1.45-.43s-.72-.39-1-.71c-.28-.32-.42-.76-.42-1.32,0-.47.13-.89.39-1.27.26-.38.63-.69,1.13-.91.5-.22,1.09-.33,1.78-.33,1.02,0,1.82.25,2.41.76.59.5.92,1.17,1.01,2.01h-2.3c-.04-.28-.16-.5-.37-.67-.21-.16-.48-.25-.82-.25-.29,0-.51.06-.67.17s-.23.26-.23.46c0,.23.12.41.37.52.25.12.63.23,1.16.35.6.16,1.09.31,1.47.46s.71.39,1,.73c.29.33.43.78.44,1.34,0,.48-.13.9-.4,1.27-.27.37-.65.67-1.15.88s-1.08.32-1.74.32c-.71,0-1.34-.12-1.89-.36Z"/>
    <path class="cls-1" d="M60.21,43.09c.43-.23.93-.35,1.5-.35.67,0,1.27.17,1.82.51.54.34.97.82,1.29,1.45.31.63.47,1.36.47,2.2s-.16,1.57-.47,2.2c-.31.64-.74,1.12-1.29,1.47-.54.34-1.15.52-1.82.52-.56,0-1.06-.12-1.49-.35-.43-.23-.77-.53-1.01-.9v5h-2.49v-11.98h2.49v1.15c.24-.38.58-.68,1-.92ZM62.24,45.44c-.34-.35-.77-.53-1.27-.53s-.91.18-1.26.54c-.34.36-.52.85-.52,1.47s.17,1.11.52,1.47c.34.36.76.54,1.26.54s.92-.18,1.27-.54c.35-.36.52-.86.52-1.48s-.17-1.11-.52-1.46Z"/>
    <path class="cls-1" d="M68.14,50.58c-.64-.34-1.13-.82-1.5-1.45-.36-.63-.55-1.37-.55-2.21s.18-1.57.55-2.2c.37-.63.87-1.12,1.51-1.46s1.36-.51,2.15-.51,1.51.17,2.15.51c.64.34,1.14.83,1.51,1.46.37.64.55,1.37.55,2.2s-.19,1.57-.56,2.2c-.37.64-.88,1.12-1.53,1.46-.64.34-1.36.51-2.16.51s-1.51-.17-2.14-.51ZM71.5,48.41c.33-.35.5-.85.5-1.5s-.16-1.15-.49-1.5c-.32-.35-.72-.52-1.2-.52s-.89.17-1.21.52c-.32.34-.48.85-.48,1.51s.16,1.15.47,1.5c.31.35.71.52,1.18.52s.88-.18,1.21-.52Z"/>
    <path class="cls-1" d="M77.27,50.72c-.55-.24-.99-.57-1.31-1-.32-.42-.5-.89-.54-1.42h2.46c.03.28.16.51.39.68.23.17.52.26.86.26.31,0,.55-.06.72-.18.17-.12.25-.28.25-.47,0-.23-.12-.4-.36-.52-.24-.11-.64-.24-1.18-.37-.58-.13-1.07-.28-1.45-.43-.39-.15-.72-.39-1-.71-.28-.32-.42-.76-.42-1.32,0-.47.13-.89.39-1.27.26-.38.63-.69,1.13-.91.5-.22,1.09-.33,1.78-.33,1.02,0,1.82.25,2.41.76.59.5.92,1.17,1.01,2.01h-2.3c-.04-.28-.16-.5-.37-.67-.21-.16-.48-.25-.82-.25-.29,0-.51.06-.67.17s-.23.26-.23.46c0,.23.12.41.37.52.25.12.63.23,1.16.35.6.16,1.09.31,1.47.46.38.15.71.39,1,.73.29.33.43.78.44,1.34,0,.48-.13.9-.4,1.27-.27.37-.65.67-1.15.88-.5.21-1.08.32-1.74.32-.71,0-1.34-.12-1.89-.36Z"/>
    <path class="cls-1" d="M85.38,50.72c-.55-.24-.99-.57-1.31-1-.32-.42-.5-.89-.54-1.42h2.46c.03.28.16.51.39.68.23.17.52.26.86.26.31,0,.55-.06.72-.18.17-.12.25-.28.25-.47,0-.23-.12-.4-.36-.52-.24-.11-.64-.24-1.18-.37-.58-.13-1.07-.28-1.45-.43-.39-.15-.72-.39-1-.71-.28-.32-.42-.76-.42-1.32,0-.47.13-.89.39-1.27.26-.38.63-.69,1.13-.91.5-.22,1.09-.33,1.78-.33,1.02,0,1.82.25,2.41.76.59.5.92,1.17,1.01,2.01h-2.3c-.04-.28-.16-.5-.37-.67-.21-.16-.48-.25-.82-.25-.29,0-.51.06-.67.17s-.23.26-.23.46c0,.23.12.41.37.52.25.12.63.23,1.16.35.6.16,1.09.31,1.47.46.38.15.71.39,1,.73.29.33.43.78.44,1.34,0,.48-.13.9-.4,1.27-.27.37-.65.67-1.15.88-.5.21-1.08.32-1.74.32-.71,0-1.34-.12-1.89-.36Z"/>
    <path class="cls-1" d="M92.26,41.63c-.28-.26-.41-.57-.41-.95s.14-.71.41-.97c.28-.26.63-.39,1.07-.39s.78.13,1.05.39c.28.26.41.58.41.97s-.14.7-.41.95c-.28.26-.63.39-1.05.39s-.79-.13-1.07-.39ZM94.57,42.86v8.11h-2.49v-8.11h2.49Z"/>
    <path class="cls-1" d="M99.86,43.09c.44-.23.93-.35,1.5-.35.67,0,1.27.17,1.82.51.54.34.97.82,1.29,1.45.31.63.47,1.36.47,2.2s-.16,1.57-.47,2.2c-.31.64-.74,1.12-1.29,1.47-.54.34-1.15.52-1.82.52-.57,0-1.07-.11-1.5-.34-.43-.23-.76-.53-1-.91v1.13h-2.49v-10.76h2.49v3.8c.23-.38.57-.68,1-.92ZM101.89,45.44c-.34-.35-.77-.53-1.27-.53s-.91.18-1.26.54-.52.85-.52,1.47.17,1.11.52,1.47.76.54,1.26.54.92-.18,1.27-.54c.35-.36.52-.86.52-1.48s-.17-1.11-.52-1.46Z"/>
    <path class="cls-1" d="M108.73,40.21v10.76h-2.49v-10.76h2.49Z"/>
    <path class="cls-1" d="M118.14,47.51h-5.63c.04.51.2.89.49,1.16.29.27.64.4,1.05.4.62,0,1.05-.26,1.29-.78h2.65c-.14.53-.38,1.01-.73,1.44-.35.43-.8.76-1.33,1-.53.24-1.13.36-1.79.36-.8,0-1.5-.17-2.12-.51-.62-.34-1.11-.82-1.45-1.45-.35-.63-.52-1.37-.52-2.21s.17-1.58.52-2.21c.34-.63.83-1.11,1.45-1.45s1.33-.51,2.14-.51,1.48.16,2.09.49c.61.33,1.09.8,1.43,1.41s.52,1.32.52,2.14c0,.23-.01.48-.04.73ZM115.64,46.13c0-.43-.15-.77-.44-1.02-.29-.25-.65-.38-1.09-.38s-.77.12-1.05.36c-.29.24-.46.59-.53,1.03h3.11Z"/>
  </g>
</svg>