<?xml version="1.0" encoding="utf-8"?>
<!-- Generator: Adobe Illustrator 27.6.1, SVG Export Plug-In . SVG Version: 6.00 Build 0)  -->
<svg version="1.1" id="Layer_1" xmlns="http://www.w3.org/2000/svg" xmlns:xlink="http://www.w3.org/1999/xlink" x="0px" y="0px"
	 viewBox="0 0 155.9 50" style="enable-background:new 0 0 155.9 50;" xml:space="preserve">
<style type="text/css">
	.st0{fill:#EBEBD3;}
	.st1{fill:#FFFFFF;}
</style>
<g>
	<path class="st0" d="M4.5,6.1h5.1c3.3,0,5.5,0.2,6.7,0.4c1.2,0.3,2,0.8,2.6,1.5c0.6,0.7,1,1.5,1.1,2.3c0.1,0.9,0.2,2.5,0.2,5v9.2
		c0,2.4-0.1,3.9-0.3,4.7s-0.6,1.4-1.2,1.9s-1.2,0.8-2,0.9c-0.8,0.2-2,0.3-3.7,0.3H4.5V6.1z M11.3,10.6v17.3c1,0,1.6-0.2,1.8-0.6
		s0.3-1.5,0.3-3.2V13.9c0-1.2,0-1.9-0.1-2.3c-0.1-0.3-0.2-0.6-0.5-0.7S12.1,10.6,11.3,10.6z"/>
	<path class="st0" d="M23.7,6.1h4.8c3.2,0,5.4,0.1,6.6,0.4c1.1,0.2,2.1,0.9,2.8,1.9s1.1,2.7,1.1,4.9c0,2.1-0.2,3.4-0.8,4.1
		c-0.5,0.7-1.5,1.1-3,1.3c1.3,0.3,2.3,0.8,2.7,1.4c0.5,0.6,0.8,1.1,0.9,1.5c0.1,0.5,0.2,1.8,0.2,3.9v6.9h-6.3v-8.7
		c0-1.4-0.1-2.3-0.3-2.6c-0.2-0.3-0.8-0.5-1.8-0.5v11.8h-6.8C23.7,32.4,23.7,6.1,23.7,6.1z M30.5,10.6v5.8c0.8,0,1.3-0.1,1.6-0.3
		c0.3-0.2,0.5-0.9,0.5-2.1v-1.4c0-0.8-0.2-1.4-0.5-1.6S31.3,10.6,30.5,10.6z"/>
	<path class="st0" d="M42.4,6.1h11.4v5.3h-4.6v5h4.3v5h-4.3v5.8h5v5.3H42.4L42.4,6.1L42.4,6.1z"/>
	<path class="st0" d="M68.9,6.1l3.9,26.3h-7l-0.4-4.7H63l-0.4,4.7h-7.1L59,6.1C59,6.1,68.9,6.1,68.9,6.1z M65.2,23
		c-0.3-3-0.7-6.7-1-11c-0.7,5-1.1,8.7-1.3,11H65.2z"/>
	<path class="st0" d="M95.9,6.1v26.3h-6V14.6l-2.4,17.8h-4.2l-2.5-17.3v17.3h-6V6.1h8.8c0.3,1.6,0.5,3.4,0.8,5.6l1,6.7L87,6.1
		L95.9,6.1L95.9,6.1z"/>
	<path class="st0" d="M106.1,6.1h6.8c2.2,0,3.8,0.2,4.9,0.5s2,1,2.7,2c0.7,1,1,2.7,1,4.9c0,1.5-0.2,2.6-0.7,3.2s-1.4,1.1-2.8,1.4
		c1.6,0.4,2.7,1,3.2,1.8c0.6,0.8,0.8,2.1,0.8,3.8v2.4c0,1.8-0.2,3.1-0.6,4s-1.1,1.4-1.9,1.8c-0.9,0.3-2.7,0.5-5.4,0.5h-7.9
		L106.1,6.1L106.1,6.1z M113,10.6v5.8c0.3,0,0.5,0,0.7,0c0.7,0,1.1-0.2,1.3-0.5s0.3-1.3,0.3-2.8c0-0.8-0.1-1.4-0.2-1.7
		s-0.3-0.5-0.6-0.6S113.7,10.6,113,10.6L113,10.6z M113,20.5v7.4c1,0,1.6-0.2,1.8-0.5s0.4-0.9,0.4-2V23c0-1.1-0.1-1.8-0.4-2
		S114,20.6,113,20.5z"/>
	<path class="st0" d="M132.2,6.1v26.3h-6.8V6.1H132.2z"/>
	<path class="st0" d="M151.4,15.8h-6.8v-2.4c0-1.5-0.1-2.4-0.2-2.8c-0.1-0.4-0.4-0.6-0.9-0.6c-0.4,0-0.7,0.2-0.9,0.5
		s-0.2,1.2-0.2,2.5v12.6c0,1.2,0.1,2,0.2,2.3s0.4,0.6,0.9,0.6c0.5,0,0.8-0.2,1-0.6c0.2-0.4,0.3-1.2,0.3-2.5v-3.1h-1.4v-4h8v14.1
		h-4.3l-0.6-1.9c-0.5,0.8-1.1,1.4-1.8,1.8c-0.7,0.4-1.6,0.6-2.5,0.6c-1.1,0-2.2-0.3-3.2-0.8c-1-0.6-1.8-1.2-2.3-2.1s-0.9-1.7-1-2.6
		c-0.1-0.9-0.2-2.3-0.2-4.1v-7.8c0-2.5,0.1-4.3,0.4-5.5c0.3-1.1,1.1-2.2,2.3-3.1s2.9-1.4,5-1.4s3.7,0.4,5,1.2
		c1.3,0.8,2.2,1.8,2.6,2.9c0.4,1.1,0.6,2.8,0.6,4.9L151.4,15.8L151.4,15.8z"/>
</g>
<path class="st1" d="M8.3,46.8c34.8-7.8,70.6-11.6,106.3-11.3c4.5,0,13.4,0.3,17.9,0.6c2.2,0.1,6.7,0.4,8.9,0.6l8.9,0.8l-0.7,5.2
	l-8.8-1.1c-2.2-0.3-6.6-0.8-8.8-1c-4.4-0.5-13.2-1.1-17.7-1.2C79,37.9,43.3,40.4,8.3,46.8L8.3,46.8L8.3,46.8z"/>
</svg>
